<?xml version="1.0" encoding="UTF-8"?>
<!DOCTYPE svg PUBLIC "-//W3C//DTD SVG 1.1//EN" "http://www.w3.org/Graphics/SVG/1.1/DTD/svg11.dtd">
<svg xmlns="http://www.w3.org/2000/svg">
  <symbol id="icon-german-flag" viewBox="0 0 30 30.000001">
    <defs><clipPath id="id1"><path d="M 2.613281 18 L 27.292969 18 L 27.292969 23.722656 L 2.613281 23.722656 Z M 2.613281 18 " clip-rule="nonzero"/></clipPath><clipPath id="id2"><path d="M 2.613281 11 L 27.292969 11 L 27.292969 19 L 2.613281 19 Z M 2.613281 11 " clip-rule="nonzero"/></clipPath><clipPath id="id3"><path d="M 2.613281 5.578125 L 27.292969 5.578125 L 27.292969 12 L 2.613281 12 Z M 2.613281 5.578125 " clip-rule="nonzero"/></clipPath></defs><g clip-path="url(#id1)"><path fill="rgb(100%, 80.389404%, 1.959229%)" d="M 2.625 20.929688 C 2.625 22.472656 3.851562 23.722656 5.363281 23.722656 L 24.542969 23.722656 C 26.054688 23.722656 27.28125 22.472656 27.28125 20.929688 L 27.28125 18.136719 L 2.625 18.136719 Z M 2.625 20.929688 " fill-opacity="1" fill-rule="nonzero"/></g><g clip-path="url(#id2)"><path fill="rgb(92.939758%, 12.159729%, 14.118958%)" d="M 2.625 11.855469 L 27.28125 11.855469 L 27.28125 18.136719 L 2.625 18.136719 Z M 2.625 11.855469 " fill-opacity="1" fill-rule="nonzero"/></g><g clip-path="url(#id3)"><path fill="rgb(7.839966%, 7.839966%, 7.839966%)" d="M 24.542969 5.578125 L 5.363281 5.578125 C 3.851562 5.578125 2.625 6.828125 2.625 8.367188 L 2.625 11.855469 L 27.28125 11.855469 L 27.28125 8.367188 C 27.28125 6.828125 26.054688 5.578125 24.542969 5.578125 Z M 24.542969 5.578125 " fill-opacity="1" fill-rule="nonzero"/></g>
  </symbol>
  <symbol id="icon-england-flag" viewBox="0 0 30 30.000001">
    <defs><clipPath id="id1"><path d="M 2.511719 6.402344 L 27.191406 6.402344 L 27.191406 24.546875 L 2.511719 24.546875 Z M 2.511719 6.402344 " clip-rule="nonzero"/></clipPath></defs><g clip-path="url(#id1)"><path fill="rgb(0%, 14.118958%, 49.01886%)" d="M 2.519531 9.234375 L 2.519531 11.984375 L 6.375 11.984375 Z M 5.714844 24.546875 L 11.425781 24.546875 L 11.425781 20.472656 Z M 18.277344 20.472656 L 18.277344 24.546875 L 23.984375 24.546875 Z M 2.519531 18.964844 L 2.519531 21.714844 L 6.378906 18.964844 Z M 23.988281 6.402344 L 18.277344 6.402344 L 18.277344 10.472656 Z M 27.183594 21.714844 L 27.183594 18.964844 L 23.324219 18.964844 Z M 27.183594 11.984375 L 27.183594 9.234375 L 23.324219 11.984375 Z M 11.425781 6.402344 L 5.714844 6.402344 L 11.425781 10.472656 Z M 11.425781 6.402344 " fill-opacity="1" fill-rule="nonzero"/><path fill="rgb(81.17981%, 10.5896%, 16.859436%)" d="M 19.742188 18.964844 L 26.394531 23.710938 C 26.71875 23.375 26.949219 22.953125 27.074219 22.488281 L 22.132812 18.964844 Z M 11.425781 18.964844 L 9.960938 18.964844 L 3.304688 23.707031 C 3.664062 24.078125 4.121094 24.34375 4.632812 24.464844 L 11.425781 19.621094 Z M 18.277344 11.984375 L 19.742188 11.984375 L 26.394531 7.238281 C 26.039062 6.867188 25.582031 6.605469 25.070312 6.480469 L 18.277344 11.324219 Z M 9.960938 11.984375 L 3.304688 7.238281 C 2.984375 7.574219 2.753906 7.992188 2.628906 8.460938 L 7.570312 11.984375 Z M 9.960938 11.984375 " fill-opacity="1" fill-rule="nonzero"/><path fill="rgb(93.328857%, 93.328857%, 93.328857%)" d="M 27.183594 17.566406 L 16.90625 17.566406 L 16.90625 24.546875 L 18.277344 24.546875 L 18.277344 20.472656 L 23.984375 24.546875 L 24.441406 24.546875 C 25.207031 24.546875 25.898438 24.222656 26.394531 23.710938 L 19.742188 18.964844 L 22.132812 18.964844 L 27.074219 22.488281 C 27.136719 22.253906 27.183594 22.011719 27.183594 21.753906 L 27.183594 21.714844 L 23.324219 18.964844 L 27.183594 18.964844 Z M 2.519531 17.566406 L 2.519531 18.964844 L 6.378906 18.964844 L 2.519531 21.714844 L 2.519531 21.753906 C 2.519531 22.515625 2.820312 23.203125 3.304688 23.707031 L 9.960938 18.964844 L 11.425781 18.964844 L 11.425781 19.621094 L 4.632812 24.464844 C 4.835938 24.515625 5.042969 24.546875 5.261719 24.546875 L 5.714844 24.546875 L 11.425781 20.472656 L 11.425781 24.546875 L 12.796875 24.546875 L 12.796875 17.566406 Z M 27.183594 9.191406 C 27.183594 8.429688 26.882812 7.742188 26.394531 7.238281 L 19.742188 11.984375 L 18.277344 11.984375 L 18.277344 11.324219 L 25.070312 6.480469 C 24.867188 6.433594 24.660156 6.402344 24.441406 6.402344 L 23.988281 6.402344 L 18.277344 10.472656 L 18.277344 6.402344 L 16.90625 6.402344 L 16.90625 13.378906 L 27.183594 13.378906 L 27.183594 11.984375 L 23.324219 11.984375 L 27.183594 9.234375 Z M 11.425781 6.402344 L 11.425781 10.472656 L 5.714844 6.402344 L 5.261719 6.402344 C 4.496094 6.402344 3.804688 6.722656 3.304688 7.238281 L 9.960938 11.984375 L 7.570312 11.984375 L 2.628906 8.460938 C 2.566406 8.695312 2.519531 8.9375 2.519531 9.191406 L 2.519531 9.234375 L 6.375 11.984375 L 2.519531 11.984375 L 2.519531 13.378906 L 12.796875 13.378906 L 12.796875 6.402344 Z M 11.425781 6.402344 " fill-opacity="1" fill-rule="nonzero"/><path fill="rgb(81.17981%, 10.5896%, 16.859436%)" d="M 16.90625 13.378906 L 16.90625 6.402344 L 12.796875 6.402344 L 12.796875 13.378906 L 2.519531 13.378906 L 2.519531 17.566406 L 12.796875 17.566406 L 12.796875 24.546875 L 16.90625 24.546875 L 16.90625 17.566406 L 27.183594 17.566406 L 27.183594 13.378906 Z M 16.90625 13.378906 " fill-opacity="1" fill-rule="nonzero"/></g>
  </symbol>
  <symbol id="icon-muelleimer" viewBox="0 0 512 512">
    <path d="M112 112l20 320c.95 18.49 14.4 32 32 32h184c17.67 0 30.87-13.51 32-32l20-320"  stroke="currentColor" stroke-linecap="round" stroke-linejoin="round" stroke-width="32"/><path stroke="currentColor" stroke-linecap="round" stroke-miterlimit="10" stroke-width="32" d="M80 112h352"/><path d="M192 112V72h0a23.93 23.93 0 0124-24h80a23.93 23.93 0 0124 24h0v40M256 176v224M184 176l8 224M328 176l-8 224" fill="none" stroke="currentColor" stroke-linecap="round" stroke-linejoin="round" stroke-width="32"/>
  </symbol>
  <symbol id="icon-pfeil-rechts" viewBox="0 0 512 512">
    <path fill="none" stroke="currentColor" stroke-linecap="round" stroke-linejoin="round" stroke-width="48" d="M268 112l144 144-144 144M392 256H100"/>
  </symbol>
  <symbol id="icon-pfeil-runter" viewBox="0 0 24 24">
    <path fill="none" stroke="currentColor" stroke-width="2" stroke-linecap="round" stroke-linejoin="round" d="M19 9l-7 7-7-7" />
  </symbol>
  <symbol id="icon-check" viewBox="0 0 512 512">
    <path fill="none" stroke="currentColor" stroke-linecap="round" stroke-linejoin="round" stroke-width="32" d="M464 128L240 384l-96-96M144 384l-96-96M368 128L232 284"/>
  </symbol>
  <symbol id="icon-false" viewBox="0 0 512 512">
    <path fill="none" stroke="currentColor" stroke-linecap="round" stroke-linejoin="round" stroke-width="32" d="M368 368L144 144M368 144L144 368"/>
  </symbol>
  <symbol id="icon-uebersetzer" viewBox="0 0 64 64">
    <path fill="#c2cde7" d="M59,20v36c0,1.66-1.34,3-3,3H33L21,17h35C57.66,17,59,18.34,59,20z"/><path fill="#85cbf8" d="M43,47H8c-1.66,0-3-1.34-3-3V8c0-1.66,1.34-3,3-3h21.49c0.89,0,1.68,0.59,1.92,1.45L32.42,10L43,47z"/><path fill="#acb7d0" d="M42 47L29.735 47.029 33 58 43 47z"/><path fill="#acb7d0" d="M59,57.63L59,57.63c0,0.757-0.614,1.37-1.37,1.37H35v-5h20.37C57.375,54,59,55.625,59,57.63z"/><path fill="#9fddff" d="M32.42,10H8.827C6.713,10,5,8.287,5,6.173v0C5,5.525,5.525,5,6.173,5H29.49 c0.89,0,1.68,0.59,1.92,1.45L32.42,10z"/><path fill="#8d6c9f" d="M56,16H35.18l-2.8-9.82C32.01,4.89,30.82,4,29.49,4H8C5.79,4,4,5.79,4,8v36c0,2.21,1.79,4,4,4 h20.82l3.22,11.27c0.01,0.034,0.031,0.061,0.044,0.094c0.02,0.05,0.039,0.097,0.067,0.143c0.043,0.073,0.097,0.135,0.156,0.194 c0.021,0.021,0.031,0.048,0.053,0.067c0.006,0.005,0.014,0.007,0.021,0.012c0.066,0.053,0.142,0.091,0.22,0.126 c0.024,0.011,0.046,0.029,0.071,0.038c0.099,0.035,0.205,0.053,0.315,0.054C32.991,59.998,32.995,60,33,60l0,0l0,0h23 c2.21,0,4-1.79,4-4V20C60,17.79,58.21,16,56,16z M28.25,46H8c-1.1,0-2-0.9-2-2V8c0-1.1,0.9-2,2-2h21.49c0.45,0,0.84,0.3,0.96,0.73 L33.1,16l0.57,2l8,28H30.32H28.25z M40.865,48l-7.426,8.911L30.9,48H40.865z M58,56c0,1.1-0.9,2-2,2H35.135L38,54.562V55 c0,0.552,0.448,1,1,1s1-0.448,1-1v-2c0-0.223-0.087-0.419-0.211-0.585l3.979-4.775c0.006-0.008,0.007-0.017,0.013-0.025 c0.005-0.006,0.014-0.009,0.018-0.015c0.024-0.032,0.027-0.072,0.047-0.106c0.049-0.084,0.093-0.168,0.116-0.26 c0.013-0.053,0.012-0.105,0.016-0.159c0.007-0.094,0.004-0.183-0.015-0.275c-0.005-0.023,0.003-0.047-0.004-0.07l-1.27-4.449 c1.026-0.593,1.973-1.302,2.824-2.093c2.15,2.201,4.957,3.782,7.474,3.782c0.552,0,1-0.448,1-1s-0.448-1-1-1 c-1.995,0-4.321-1.368-6.11-3.22c1.938-2.323,3.11-5.105,3.11-7.78v-1h3c0.552,0,1-0.448,1-1s-0.448-1-1-1h-7v-2 c0-0.552-0.448-1-1-1s-1,0.448-1,1v2h-3c-0.552,0-1,0.448-1,1s0.448,1,1,1h7v1c0,2.233-0.984,4.394-2.418,6.195 c-0.961-1.374-1.582-2.858-1.582-4.195c0-0.552-0.448-1-1-1s-1,0.448-1,1c0,1.865,0.868,3.891,2.212,5.69 c-0.657,0.62-1.362,1.163-2.081,1.622L35.76,18H56c1.1,0,2,0.9,2,2V56z"/><path fill="#fff" d="M22.335,18.65c-0.137-0.406-0.518-0.68-0.947-0.68s-0.81,0.274-0.947,0.68l-5.4,16 c-0.177,0.523,0.104,1.091,0.627,1.267c0.522,0.178,1.091-0.105,1.267-0.627l1.806-5.35c0.05,0.008,0.095,0.03,0.147,0.03h5 c0.052,0,0.097-0.022,0.147-0.03l1.806,5.35c0.141,0.417,0.53,0.681,0.947,0.681c0.106,0,0.214-0.017,0.32-0.053 c0.523-0.176,0.804-0.744,0.627-1.267L22.335,18.65z M19.406,27.97l1.982-5.873l1.982,5.873H19.406z"/><path fill="#8d6c9f" d="M9 8C8.448 8 8 8.448 8 9v2c0 .552.448 1 1 1s1-.448 1-1V9C10 8.448 9.552 8 9 8zM15 9c0-.552-.448-1-1-1s-1 .448-1 1v2c0 .552.448 1 1 1s1-.448 1-1V9zM19 12c.552 0 1-.448 1-1V9c0-.552-.448-1-1-1s-1 .448-1 1v2C18 11.552 18.448 12 19 12zM24 12c.552 0 1-.448 1-1V9c0-.552-.448-1-1-1s-1 .448-1 1v2C23 11.552 23.448 12 24 12zM29 8c-.552 0-1 .448-1 1v2c0 .552.448 1 1 1s1-.448 1-1V9C30 8.448 29.552 8 29 8zM44 52c-.552 0-1 .448-1 1v2c0 .552.448 1 1 1s1-.448 1-1v-2C45 52.448 44.552 52 44 52zM49 52c-.552 0-1 .448-1 1v2c0 .552.448 1 1 1s1-.448 1-1v-2C50 52.448 49.552 52 49 52zM54 52c-.552 0-1 .448-1 1v2c0 .552.448 1 1 1s1-.448 1-1v-2C55 52.448 54.552 52 54 52z"/>
  </symbol>
  <symbol id="icon-loader" viewBox="0 0 24 24">
    <path d="M11 2v4c0 0.552 0.448 1 1 1s1-0.448 1-1v-4c0-0.552-0.448-1-1-1s-1 0.448-1 1zM11 18v4c0 0.552 0.448 1 1 1s1-0.448 1-1v-4c0-0.552-0.448-1-1-1s-1 0.448-1 1zM4.223 5.637l2.83 2.83c0.391 0.391 1.024 0.391 1.414 0s0.391-1.024 0-1.414l-2.83-2.83c-0.391-0.391-1.024-0.391-1.414 0s-0.391 1.024 0 1.414zM15.533 16.947l2.83 2.83c0.391 0.391 1.024 0.391 1.414 0s0.391-1.024 0-1.414l-2.83-2.83c-0.391-0.391-1.024-0.391-1.414 0s-0.391 1.024 0 1.414zM2 13h4c0.552 0 1-0.448 1-1s-0.448-1-1-1h-4c-0.552 0-1 0.448-1 1s0.448 1 1 1zM18 13h4c0.552 0 1-0.448 1-1s-0.448-1-1-1h-4c-0.552 0-1 0.448-1 1s0.448 1 1 1zM5.637 19.777l2.83-2.83c0.391-0.391 0.391-1.024 0-1.414s-1.024-0.391-1.414 0l-2.83 2.83c-0.391 0.391-0.391 1.024 0 1.414s1.024 0.391 1.414 0zM16.947 8.467l2.83-2.83c0.391-0.391 0.391-1.024 0-1.414s-1.024-0.391-1.414 0l-2.83 2.83c-0.391 0.391-0.391 1.024 0 1.414s1.024 0.391 1.414 0z"></path>
  </symbol>
</svg>
